<svg width="462" height="434" viewBox="0 0 462 434" fill="none" xmlns="http://www.w3.org/2000/svg">
<path fill-rule="evenodd" clip-rule="evenodd" d="M237.197 257.901C237.197 260.056 238.944 261.803 241.099 261.803C243.253 261.803 245 260.056 245 257.901C245 255.747 243.253 254 241.099 254C238.944 254 237.197 255.747 237.197 257.901Z" fill="#FF4C29"/>
<path fill-rule="evenodd" clip-rule="evenodd" d="M237.197 326.564C237.197 328.718 238.944 330.465 241.099 330.465C243.253 330.465 245 328.718 245 326.564C245 324.409 243.253 322.662 241.099 322.662C238.944 322.662 237.197 324.409 237.197 326.564Z" fill="#FF4C29"/>
<path fill-rule="evenodd" clip-rule="evenodd" d="M237.197 395.226C237.197 397.381 238.944 399.127 241.099 399.127C243.253 399.127 245 397.381 245 395.226C245 393.071 243.253 391.325 241.099 391.325C238.944 391.325 237.197 393.071 237.197 395.226Z" fill="#FF4C29"/>
<path fill-rule="evenodd" clip-rule="evenodd" d="M237.197 292.232C237.197 294.387 238.944 296.134 241.099 296.134C243.253 296.134 245 294.387 245 292.232C245 290.078 243.253 288.331 241.099 288.331C238.944 288.331 237.197 290.078 237.197 292.232Z" fill="#FF4C29"/>
<path fill-rule="evenodd" clip-rule="evenodd" d="M237.197 360.895C237.197 363.05 238.944 364.796 241.099 364.796C243.253 364.796 245 363.05 245 360.895C245 358.74 243.253 356.994 241.099 356.994C238.944 356.994 237.197 358.74 237.197 360.895Z" fill="#FF4C29"/>
<path fill-rule="evenodd" clip-rule="evenodd" d="M237.197 429.557C237.197 431.712 238.944 433.459 241.099 433.459C243.253 433.459 245 431.712 245 429.557C245 427.403 243.253 425.656 241.099 425.656C238.944 425.656 237.197 427.403 237.197 429.557Z" fill="#FF4C29"/>
<path fill-rule="evenodd" clip-rule="evenodd" d="M148.248 257.901C148.248 260.056 149.995 261.803 152.15 261.803C154.304 261.803 156.051 260.056 156.051 257.901C156.051 255.747 154.304 254 152.15 254C149.995 254 148.248 255.747 148.248 257.901Z" fill="#FF4C29"/>
<path fill-rule="evenodd" clip-rule="evenodd" d="M148.248 326.564C148.248 328.718 149.995 330.465 152.15 330.465C154.304 330.465 156.051 328.718 156.051 326.564C156.051 324.409 154.304 322.662 152.15 322.662C149.995 322.662 148.248 324.409 148.248 326.564Z" fill="#FF4C29"/>
<path fill-rule="evenodd" clip-rule="evenodd" d="M148.248 395.226C148.248 397.381 149.995 399.127 152.15 399.127C154.304 399.127 156.051 397.381 156.051 395.226C156.051 393.071 154.304 391.325 152.15 391.325C149.995 391.325 148.248 393.071 148.248 395.226Z" fill="#FF4C29"/>
<path fill-rule="evenodd" clip-rule="evenodd" d="M148.248 292.232C148.248 294.387 149.995 296.134 152.15 296.134C154.304 296.134 156.051 294.387 156.051 292.232C156.051 290.078 154.304 288.331 152.15 288.331C149.995 288.331 148.248 290.078 148.248 292.232Z" fill="#FF4C29"/>
<path fill-rule="evenodd" clip-rule="evenodd" d="M148.248 360.895C148.248 363.05 149.995 364.796 152.15 364.796C154.304 364.796 156.051 363.05 156.051 360.895C156.051 358.74 154.304 356.994 152.15 356.994C149.995 356.994 148.248 358.74 148.248 360.895Z" fill="#FF4C29"/>
<path fill-rule="evenodd" clip-rule="evenodd" d="M148.248 429.557C148.248 431.712 149.995 433.459 152.15 433.459C154.304 433.459 156.051 431.712 156.051 429.557C156.051 427.403 154.304 425.656 152.15 425.656C149.995 425.656 148.248 427.403 148.248 429.557Z" fill="#FF4C29"/>
<path fill-rule="evenodd" clip-rule="evenodd" d="M59.2994 257.901C59.2994 260.056 61.046 261.803 63.2007 261.803C65.3553 261.803 67.1019 260.056 67.1019 257.901C67.1019 255.747 65.3553 254 63.2007 254C61.046 254 59.2994 255.747 59.2994 257.901Z" fill="#FF4C29"/>
<path fill-rule="evenodd" clip-rule="evenodd" d="M59.2994 326.564C59.2994 328.718 61.046 330.465 63.2006 330.465C65.3553 330.465 67.1019 328.718 67.1019 326.564C67.1019 324.409 65.3553 322.662 63.2006 322.662C61.046 322.662 59.2994 324.409 59.2994 326.564Z" fill="#FF4C29"/>
<path fill-rule="evenodd" clip-rule="evenodd" d="M59.2994 395.226C59.2994 397.381 61.046 399.127 63.2006 399.127C65.3553 399.127 67.1019 397.381 67.1019 395.226C67.1019 393.071 65.3553 391.325 63.2006 391.325C61.046 391.325 59.2994 393.071 59.2994 395.226Z" fill="#FF4C29"/>
<path fill-rule="evenodd" clip-rule="evenodd" d="M59.2994 292.232C59.2994 294.387 61.046 296.134 63.2006 296.134C65.3553 296.134 67.1019 294.387 67.1019 292.232C67.1019 290.078 65.3553 288.331 63.2006 288.331C61.046 288.331 59.2994 290.078 59.2994 292.232Z" fill="#FF4C29"/>
<path fill-rule="evenodd" clip-rule="evenodd" d="M59.2994 360.895C59.2994 363.05 61.046 364.796 63.2006 364.796C65.3553 364.796 67.1019 363.05 67.1019 360.895C67.1019 358.74 65.3553 356.994 63.2006 356.994C61.046 356.994 59.2994 358.74 59.2994 360.895Z" fill="#FF4C29"/>
<path fill-rule="evenodd" clip-rule="evenodd" d="M59.2994 429.557C59.2994 431.712 61.046 433.459 63.2006 433.459C65.3553 433.459 67.1019 431.712 67.1019 429.557C67.1019 427.403 65.3553 425.656 63.2006 425.656C61.046 425.656 59.2994 427.403 59.2994 429.557Z" fill="#FF4C29"/>
<path fill-rule="evenodd" clip-rule="evenodd" d="M207.548 257.901C207.548 260.056 209.294 261.803 211.449 261.803C213.604 261.803 215.35 260.056 215.35 257.901C215.35 255.747 213.604 254 211.449 254C209.294 254 207.548 255.747 207.548 257.901Z" fill="#FF4C29"/>
<path fill-rule="evenodd" clip-rule="evenodd" d="M207.548 326.564C207.548 328.718 209.294 330.465 211.449 330.465C213.604 330.465 215.35 328.718 215.35 326.564C215.35 324.409 213.604 322.662 211.449 322.662C209.294 322.662 207.548 324.409 207.548 326.564Z" fill="#FF4C29"/>
<path fill-rule="evenodd" clip-rule="evenodd" d="M207.548 395.226C207.548 397.381 209.294 399.127 211.449 399.127C213.604 399.127 215.35 397.381 215.35 395.226C215.35 393.071 213.604 391.325 211.449 391.325C209.294 391.325 207.548 393.071 207.548 395.226Z" fill="#FF4C29"/>
<path fill-rule="evenodd" clip-rule="evenodd" d="M207.548 292.232C207.548 294.387 209.294 296.134 211.449 296.134C213.604 296.134 215.35 294.387 215.35 292.232C215.35 290.078 213.604 288.331 211.449 288.331C209.294 288.331 207.548 290.078 207.548 292.232Z" fill="#FF4C29"/>
<path fill-rule="evenodd" clip-rule="evenodd" d="M207.548 360.895C207.548 363.05 209.294 364.796 211.449 364.796C213.604 364.796 215.35 363.05 215.35 360.895C215.35 358.74 213.604 356.994 211.449 356.994C209.294 356.994 207.548 358.74 207.548 360.895Z" fill="#FF4C29"/>
<path fill-rule="evenodd" clip-rule="evenodd" d="M207.548 429.557C207.548 431.712 209.294 433.459 211.449 433.459C213.604 433.459 215.35 431.712 215.35 429.557C215.35 427.403 213.604 425.656 211.449 425.656C209.294 425.656 207.548 427.403 207.548 429.557Z" fill="#FF4C29"/>
<path fill-rule="evenodd" clip-rule="evenodd" d="M118.599 257.901C118.599 260.056 120.345 261.803 122.5 261.803C124.655 261.803 126.401 260.056 126.401 257.901C126.401 255.747 124.655 254 122.5 254C120.345 254 118.599 255.747 118.599 257.901Z" fill="#FF4C29"/>
<path fill-rule="evenodd" clip-rule="evenodd" d="M118.599 326.564C118.599 328.718 120.345 330.465 122.5 330.465C124.655 330.465 126.401 328.718 126.401 326.564C126.401 324.409 124.655 322.662 122.5 322.662C120.345 322.662 118.599 324.409 118.599 326.564Z" fill="#FF4C29"/>
<path fill-rule="evenodd" clip-rule="evenodd" d="M118.599 395.226C118.599 397.381 120.345 399.127 122.5 399.127C124.655 399.127 126.401 397.381 126.401 395.226C126.401 393.071 124.655 391.325 122.5 391.325C120.345 391.325 118.599 393.071 118.599 395.226Z" fill="#FF4C29"/>
<path fill-rule="evenodd" clip-rule="evenodd" d="M118.599 292.232C118.599 294.387 120.345 296.134 122.5 296.134C124.655 296.134 126.401 294.387 126.401 292.232C126.401 290.078 124.655 288.331 122.5 288.331C120.345 288.331 118.599 290.078 118.599 292.232Z" fill="#FF4C29"/>
<path fill-rule="evenodd" clip-rule="evenodd" d="M118.599 360.895C118.599 363.05 120.345 364.796 122.5 364.796C124.655 364.796 126.401 363.05 126.401 360.895C126.401 358.74 124.655 356.994 122.5 356.994C120.345 356.994 118.599 358.74 118.599 360.895Z" fill="#FF4C29"/>
<path fill-rule="evenodd" clip-rule="evenodd" d="M118.599 429.557C118.599 431.712 120.345 433.459 122.5 433.459C124.655 433.459 126.401 431.712 126.401 429.557C126.401 427.403 124.655 425.656 122.5 425.656C120.345 425.656 118.599 427.403 118.599 429.557Z" fill="#FF4C29"/>
<path fill-rule="evenodd" clip-rule="evenodd" d="M29.6497 257.901C29.6497 260.056 31.3963 261.803 33.5509 261.803C35.7055 261.803 37.4522 260.056 37.4522 257.901C37.4522 255.747 35.7055 254 33.5509 254C31.3963 254 29.6497 255.747 29.6497 257.901Z" fill="#FF4C29"/>
<path fill-rule="evenodd" clip-rule="evenodd" d="M29.6497 326.564C29.6497 328.718 31.3963 330.465 33.5509 330.465C35.7056 330.465 37.4522 328.718 37.4522 326.564C37.4522 324.409 35.7056 322.662 33.5509 322.662C31.3963 322.662 29.6497 324.409 29.6497 326.564Z" fill="#FF4C29"/>
<path fill-rule="evenodd" clip-rule="evenodd" d="M29.6497 395.226C29.6497 397.381 31.3963 399.127 33.5509 399.127C35.7056 399.127 37.4522 397.381 37.4522 395.226C37.4522 393.071 35.7056 391.325 33.5509 391.325C31.3963 391.325 29.6497 393.071 29.6497 395.226Z" fill="#FF4C29"/>
<path fill-rule="evenodd" clip-rule="evenodd" d="M29.6497 292.232C29.6497 294.387 31.3963 296.134 33.5509 296.134C35.7056 296.134 37.4522 294.387 37.4522 292.232C37.4522 290.078 35.7056 288.331 33.5509 288.331C31.3963 288.331 29.6497 290.078 29.6497 292.232Z" fill="#FF4C29"/>
<path fill-rule="evenodd" clip-rule="evenodd" d="M29.6497 360.895C29.6497 363.05 31.3963 364.796 33.5509 364.796C35.7056 364.796 37.4522 363.05 37.4522 360.895C37.4522 358.74 35.7056 356.994 33.5509 356.994C31.3963 356.994 29.6497 358.74 29.6497 360.895Z" fill="#FF4C29"/>
<path fill-rule="evenodd" clip-rule="evenodd" d="M29.6497 429.557C29.6497 431.712 31.3963 433.459 33.5509 433.459C35.7056 433.459 37.4522 431.712 37.4522 429.557C37.4522 427.403 35.7056 425.656 33.5509 425.656C31.3963 425.656 29.6497 427.403 29.6497 429.557Z" fill="#FF4C29"/>
<path fill-rule="evenodd" clip-rule="evenodd" d="M177.898 257.901C177.898 260.056 179.645 261.803 181.799 261.803C183.954 261.803 185.701 260.056 185.701 257.901C185.701 255.747 183.954 254 181.799 254C179.645 254 177.898 255.747 177.898 257.901Z" fill="#FF4C29"/>
<path fill-rule="evenodd" clip-rule="evenodd" d="M177.898 326.564C177.898 328.718 179.645 330.465 181.799 330.465C183.954 330.465 185.701 328.718 185.701 326.564C185.701 324.409 183.954 322.662 181.799 322.662C179.645 322.662 177.898 324.409 177.898 326.564Z" fill="#FF4C29"/>
<path fill-rule="evenodd" clip-rule="evenodd" d="M177.898 395.226C177.898 397.381 179.645 399.127 181.799 399.127C183.954 399.127 185.701 397.381 185.701 395.226C185.701 393.071 183.954 391.325 181.799 391.325C179.645 391.325 177.898 393.071 177.898 395.226Z" fill="#FF4C29"/>
<path fill-rule="evenodd" clip-rule="evenodd" d="M177.898 292.232C177.898 294.387 179.645 296.134 181.799 296.134C183.954 296.134 185.701 294.387 185.701 292.232C185.701 290.078 183.954 288.331 181.799 288.331C179.645 288.331 177.898 290.078 177.898 292.232Z" fill="#FF4C29"/>
<path fill-rule="evenodd" clip-rule="evenodd" d="M177.898 360.895C177.898 363.05 179.645 364.796 181.799 364.796C183.954 364.796 185.701 363.05 185.701 360.895C185.701 358.74 183.954 356.994 181.799 356.994C179.645 356.994 177.898 358.74 177.898 360.895Z" fill="#FF4C29"/>
<path fill-rule="evenodd" clip-rule="evenodd" d="M177.898 429.557C177.898 431.712 179.645 433.459 181.799 433.459C183.954 433.459 185.701 431.712 185.701 429.557C185.701 427.403 183.954 425.656 181.799 425.656C179.645 425.656 177.898 427.403 177.898 429.557Z" fill="#FF4C29"/>
<path fill-rule="evenodd" clip-rule="evenodd" d="M88.949 257.901C88.949 260.056 90.6957 261.803 92.8503 261.803C95.0049 261.803 96.7516 260.056 96.7516 257.901C96.7516 255.747 95.0049 254 92.8503 254C90.6957 254 88.949 255.747 88.949 257.901Z" fill="#FF4C29"/>
<path fill-rule="evenodd" clip-rule="evenodd" d="M88.949 326.564C88.949 328.718 90.6957 330.465 92.8503 330.465C95.0049 330.465 96.7516 328.718 96.7516 326.564C96.7516 324.409 95.0049 322.662 92.8503 322.662C90.6957 322.662 88.949 324.409 88.949 326.564Z" fill="#FF4C29"/>
<path fill-rule="evenodd" clip-rule="evenodd" d="M88.949 395.226C88.949 397.381 90.6957 399.127 92.8503 399.127C95.0049 399.127 96.7516 397.381 96.7516 395.226C96.7516 393.071 95.0049 391.325 92.8503 391.325C90.6957 391.325 88.949 393.071 88.949 395.226Z" fill="#FF4C29"/>
<path fill-rule="evenodd" clip-rule="evenodd" d="M88.949 292.232C88.949 294.387 90.6957 296.134 92.8503 296.134C95.0049 296.134 96.7516 294.387 96.7516 292.232C96.7516 290.078 95.0049 288.331 92.8503 288.331C90.6957 288.331 88.949 290.078 88.949 292.232Z" fill="#FF4C29"/>
<path fill-rule="evenodd" clip-rule="evenodd" d="M88.949 360.895C88.949 363.05 90.6957 364.796 92.8503 364.796C95.0049 364.796 96.7516 363.05 96.7516 360.895C96.7516 358.74 95.0049 356.994 92.8503 356.994C90.6957 356.994 88.949 358.74 88.949 360.895Z" fill="#FF4C29"/>
<path fill-rule="evenodd" clip-rule="evenodd" d="M88.949 429.557C88.949 431.712 90.6957 433.459 92.8503 433.459C95.0049 433.459 96.7516 431.712 96.7516 429.557C96.7516 427.403 95.0049 425.656 92.8503 425.656C90.6957 425.656 88.949 427.403 88.949 429.557Z" fill="#FF4C29"/>
<path fill-rule="evenodd" clip-rule="evenodd" d="M0 257.901C0 260.056 1.74666 261.803 3.90127 261.803C6.05589 261.803 7.80255 260.056 7.80255 257.901C7.80255 255.747 6.05589 254 3.90127 254C1.74666 254 0 255.747 0 257.901Z" fill="#FF4C29"/>
<path fill-rule="evenodd" clip-rule="evenodd" d="M0 326.564C0 328.718 1.74666 330.465 3.90127 330.465C6.05589 330.465 7.80255 328.718 7.80255 326.564C7.80255 324.409 6.05589 322.662 3.90127 322.662C1.74666 322.662 0 324.409 0 326.564Z" fill="#FF4C29"/>
<path fill-rule="evenodd" clip-rule="evenodd" d="M0 395.226C0 397.381 1.74666 399.127 3.90127 399.127C6.05589 399.127 7.80255 397.381 7.80255 395.226C7.80255 393.071 6.05589 391.325 3.90127 391.325C1.74666 391.325 0 393.071 0 395.226Z" fill="#FF4C29"/>
<path fill-rule="evenodd" clip-rule="evenodd" d="M0 292.232C0 294.387 1.74666 296.134 3.90127 296.134C6.05589 296.134 7.80255 294.387 7.80255 292.232C7.80255 290.078 6.05589 288.331 3.90127 288.331C1.74666 288.331 0 290.078 0 292.232Z" fill="#FF4C29"/>
<path fill-rule="evenodd" clip-rule="evenodd" d="M0 360.895C0 363.05 1.74666 364.796 3.90127 364.796C6.05589 364.796 7.80255 363.05 7.80255 360.895C7.80255 358.74 6.05589 356.994 3.90127 356.994C1.74666 356.994 0 358.74 0 360.895Z" fill="#FF4C29"/>
<path fill-rule="evenodd" clip-rule="evenodd" d="M0 429.557C0 431.712 1.74666 433.459 3.90127 433.459C6.05589 433.459 7.80255 431.712 7.80255 429.557C7.80255 427.403 6.05589 425.656 3.90127 425.656C1.74666 425.656 0 427.403 0 429.557Z" fill="#FF4C29"/>
<path fill-rule="evenodd" clip-rule="evenodd" d="M454.197 3.90127C454.197 6.05589 455.944 7.80255 458.099 7.80255C460.253 7.80255 462 6.05589 462 3.90127C462 1.74666 460.253 0 458.099 0C455.944 0 454.197 1.74666 454.197 3.90127Z" fill="#FF4C29"/>
<path fill-rule="evenodd" clip-rule="evenodd" d="M454.197 72.5637C454.197 74.7183 455.944 76.465 458.099 76.465C460.253 76.465 462 74.7183 462 72.5637C462 70.4091 460.253 68.6624 458.099 68.6624C455.944 68.6624 454.197 70.4091 454.197 72.5637Z" fill="#FF4C29"/>
<path fill-rule="evenodd" clip-rule="evenodd" d="M454.197 141.226C454.197 143.381 455.944 145.127 458.099 145.127C460.253 145.127 462 143.381 462 141.226C462 139.071 460.253 137.325 458.099 137.325C455.944 137.325 454.197 139.071 454.197 141.226Z" fill="#FF4C29"/>
<path fill-rule="evenodd" clip-rule="evenodd" d="M454.197 38.2325C454.197 40.3871 455.944 42.1338 458.099 42.1338C460.253 42.1338 462 40.3871 462 38.2325C462 36.0779 460.253 34.3312 458.099 34.3312C455.944 34.3312 454.197 36.0779 454.197 38.2325Z" fill="#FF4C29"/>
<path fill-rule="evenodd" clip-rule="evenodd" d="M454.197 106.895C454.197 109.05 455.944 110.796 458.099 110.796C460.253 110.796 462 109.05 462 106.895C462 104.74 460.253 102.994 458.099 102.994C455.944 102.994 454.197 104.74 454.197 106.895Z" fill="#FF4C29"/>
<path fill-rule="evenodd" clip-rule="evenodd" d="M454.197 175.557C454.197 177.712 455.944 179.459 458.099 179.459C460.253 179.459 462 177.712 462 175.557C462 173.403 460.253 171.656 458.099 171.656C455.944 171.656 454.197 173.403 454.197 175.557Z" fill="#FF4C29"/>
<path fill-rule="evenodd" clip-rule="evenodd" d="M365.248 3.90127C365.248 6.05589 366.995 7.80255 369.15 7.80255C371.304 7.80255 373.051 6.05589 373.051 3.90127C373.051 1.74666 371.304 0 369.15 0C366.995 0 365.248 1.74666 365.248 3.90127Z" fill="#FF4C29"/>
<path fill-rule="evenodd" clip-rule="evenodd" d="M365.248 72.5637C365.248 74.7183 366.995 76.465 369.15 76.465C371.304 76.465 373.051 74.7183 373.051 72.5637C373.051 70.4091 371.304 68.6624 369.15 68.6624C366.995 68.6624 365.248 70.4091 365.248 72.5637Z" fill="#FF4C29"/>
<path fill-rule="evenodd" clip-rule="evenodd" d="M365.248 141.226C365.248 143.381 366.995 145.127 369.15 145.127C371.304 145.127 373.051 143.381 373.051 141.226C373.051 139.071 371.304 137.325 369.15 137.325C366.995 137.325 365.248 139.071 365.248 141.226Z" fill="#FF4C29"/>
<path fill-rule="evenodd" clip-rule="evenodd" d="M365.248 38.2325C365.248 40.3871 366.995 42.1338 369.15 42.1338C371.304 42.1338 373.051 40.3871 373.051 38.2325C373.051 36.0779 371.304 34.3312 369.15 34.3312C366.995 34.3312 365.248 36.0779 365.248 38.2325Z" fill="#FF4C29"/>
<path fill-rule="evenodd" clip-rule="evenodd" d="M365.248 106.895C365.248 109.05 366.995 110.796 369.15 110.796C371.304 110.796 373.051 109.05 373.051 106.895C373.051 104.74 371.304 102.994 369.15 102.994C366.995 102.994 365.248 104.74 365.248 106.895Z" fill="#FF4C29"/>
<path fill-rule="evenodd" clip-rule="evenodd" d="M365.248 175.557C365.248 177.712 366.995 179.459 369.15 179.459C371.304 179.459 373.051 177.712 373.051 175.557C373.051 173.403 371.304 171.656 369.15 171.656C366.995 171.656 365.248 173.403 365.248 175.557Z" fill="#FF4C29"/>
<path fill-rule="evenodd" clip-rule="evenodd" d="M276.299 3.90127C276.299 6.05589 278.046 7.80255 280.201 7.80255C282.355 7.80255 284.102 6.05589 284.102 3.90127C284.102 1.74666 282.355 0 280.201 0C278.046 0 276.299 1.74666 276.299 3.90127Z" fill="#FF4C29"/>
<path fill-rule="evenodd" clip-rule="evenodd" d="M276.299 72.5637C276.299 74.7183 278.046 76.465 280.201 76.465C282.355 76.465 284.102 74.7183 284.102 72.5637C284.102 70.4091 282.355 68.6624 280.201 68.6624C278.046 68.6624 276.299 70.4091 276.299 72.5637Z" fill="#FF4C29"/>
<path fill-rule="evenodd" clip-rule="evenodd" d="M276.299 141.226C276.299 143.381 278.046 145.127 280.201 145.127C282.355 145.127 284.102 143.381 284.102 141.226C284.102 139.071 282.355 137.325 280.201 137.325C278.046 137.325 276.299 139.071 276.299 141.226Z" fill="#FF4C29"/>
<path fill-rule="evenodd" clip-rule="evenodd" d="M276.299 38.2325C276.299 40.3871 278.046 42.1338 280.201 42.1338C282.355 42.1338 284.102 40.3871 284.102 38.2325C284.102 36.0779 282.355 34.3312 280.201 34.3312C278.046 34.3312 276.299 36.0779 276.299 38.2325Z" fill="#FF4C29"/>
<path fill-rule="evenodd" clip-rule="evenodd" d="M276.299 106.895C276.299 109.05 278.046 110.796 280.201 110.796C282.355 110.796 284.102 109.05 284.102 106.895C284.102 104.74 282.355 102.994 280.201 102.994C278.046 102.994 276.299 104.74 276.299 106.895Z" fill="#FF4C29"/>
<path fill-rule="evenodd" clip-rule="evenodd" d="M276.299 175.557C276.299 177.712 278.046 179.459 280.201 179.459C282.355 179.459 284.102 177.712 284.102 175.557C284.102 173.403 282.355 171.656 280.201 171.656C278.046 171.656 276.299 173.403 276.299 175.557Z" fill="#FF4C29"/>
<path fill-rule="evenodd" clip-rule="evenodd" d="M424.548 3.90127C424.548 6.05589 426.294 7.80255 428.449 7.80255C430.604 7.80255 432.35 6.05589 432.35 3.90127C432.35 1.74666 430.604 0 428.449 0C426.294 0 424.548 1.74666 424.548 3.90127Z" fill="#FF4C29"/>
<path fill-rule="evenodd" clip-rule="evenodd" d="M424.548 72.5637C424.548 74.7183 426.294 76.465 428.449 76.465C430.604 76.465 432.35 74.7183 432.35 72.5637C432.35 70.4091 430.604 68.6624 428.449 68.6624C426.294 68.6624 424.548 70.4091 424.548 72.5637Z" fill="#FF4C29"/>
<path fill-rule="evenodd" clip-rule="evenodd" d="M424.548 141.226C424.548 143.381 426.294 145.127 428.449 145.127C430.604 145.127 432.35 143.381 432.35 141.226C432.35 139.071 430.604 137.325 428.449 137.325C426.294 137.325 424.548 139.071 424.548 141.226Z" fill="#FF4C29"/>
<path fill-rule="evenodd" clip-rule="evenodd" d="M424.548 38.2325C424.548 40.3871 426.294 42.1338 428.449 42.1338C430.604 42.1338 432.35 40.3871 432.35 38.2325C432.35 36.0779 430.604 34.3312 428.449 34.3312C426.294 34.3312 424.548 36.0779 424.548 38.2325Z" fill="#FF4C29"/>
<path fill-rule="evenodd" clip-rule="evenodd" d="M424.548 106.895C424.548 109.05 426.294 110.796 428.449 110.796C430.604 110.796 432.35 109.05 432.35 106.895C432.35 104.74 430.604 102.994 428.449 102.994C426.294 102.994 424.548 104.74 424.548 106.895Z" fill="#FF4C29"/>
<path fill-rule="evenodd" clip-rule="evenodd" d="M424.548 175.557C424.548 177.712 426.294 179.459 428.449 179.459C430.604 179.459 432.35 177.712 432.35 175.557C432.35 173.403 430.604 171.656 428.449 171.656C426.294 171.656 424.548 173.403 424.548 175.557Z" fill="#FF4C29"/>
<path fill-rule="evenodd" clip-rule="evenodd" d="M335.599 3.90127C335.599 6.05589 337.345 7.80255 339.5 7.80255C341.655 7.80255 343.401 6.05589 343.401 3.90127C343.401 1.74666 341.655 0 339.5 0C337.345 0 335.599 1.74666 335.599 3.90127Z" fill="#FF4C29"/>
<path fill-rule="evenodd" clip-rule="evenodd" d="M335.599 72.5637C335.599 74.7183 337.345 76.465 339.5 76.465C341.655 76.465 343.401 74.7183 343.401 72.5637C343.401 70.4091 341.655 68.6624 339.5 68.6624C337.345 68.6624 335.599 70.4091 335.599 72.5637Z" fill="#FF4C29"/>
<path fill-rule="evenodd" clip-rule="evenodd" d="M335.599 141.226C335.599 143.381 337.345 145.127 339.5 145.127C341.655 145.127 343.401 143.381 343.401 141.226C343.401 139.071 341.655 137.325 339.5 137.325C337.345 137.325 335.599 139.071 335.599 141.226Z" fill="#FF4C29"/>
<path fill-rule="evenodd" clip-rule="evenodd" d="M335.599 38.2325C335.599 40.3871 337.345 42.1338 339.5 42.1338C341.655 42.1338 343.401 40.3871 343.401 38.2325C343.401 36.0779 341.655 34.3312 339.5 34.3312C337.345 34.3312 335.599 36.0779 335.599 38.2325Z" fill="#FF4C29"/>
<path fill-rule="evenodd" clip-rule="evenodd" d="M335.599 106.895C335.599 109.05 337.345 110.796 339.5 110.796C341.655 110.796 343.401 109.05 343.401 106.895C343.401 104.74 341.655 102.994 339.5 102.994C337.345 102.994 335.599 104.74 335.599 106.895Z" fill="#FF4C29"/>
<path fill-rule="evenodd" clip-rule="evenodd" d="M335.599 175.557C335.599 177.712 337.345 179.459 339.5 179.459C341.655 179.459 343.401 177.712 343.401 175.557C343.401 173.403 341.655 171.656 339.5 171.656C337.345 171.656 335.599 173.403 335.599 175.557Z" fill="#FF4C29"/>
<path fill-rule="evenodd" clip-rule="evenodd" d="M246.65 3.90127C246.65 6.05589 248.396 7.80255 250.551 7.80255C252.706 7.80255 254.452 6.05589 254.452 3.90127C254.452 1.74666 252.706 0 250.551 0C248.396 0 246.65 1.74666 246.65 3.90127Z" fill="#FF4C29"/>
<path fill-rule="evenodd" clip-rule="evenodd" d="M246.65 72.5637C246.65 74.7183 248.396 76.465 250.551 76.465C252.706 76.465 254.452 74.7183 254.452 72.5637C254.452 70.4091 252.706 68.6624 250.551 68.6624C248.396 68.6624 246.65 70.4091 246.65 72.5637Z" fill="#FF4C29"/>
<path fill-rule="evenodd" clip-rule="evenodd" d="M246.65 141.226C246.65 143.381 248.396 145.127 250.551 145.127C252.706 145.127 254.452 143.381 254.452 141.226C254.452 139.071 252.706 137.325 250.551 137.325C248.396 137.325 246.65 139.071 246.65 141.226Z" fill="#FF4C29"/>
<path fill-rule="evenodd" clip-rule="evenodd" d="M246.65 38.2325C246.65 40.3871 248.396 42.1338 250.551 42.1338C252.706 42.1338 254.452 40.3871 254.452 38.2325C254.452 36.0779 252.706 34.3312 250.551 34.3312C248.396 34.3312 246.65 36.0779 246.65 38.2325Z" fill="#FF4C29"/>
<path fill-rule="evenodd" clip-rule="evenodd" d="M246.65 106.895C246.65 109.05 248.396 110.796 250.551 110.796C252.706 110.796 254.452 109.05 254.452 106.895C254.452 104.74 252.706 102.994 250.551 102.994C248.396 102.994 246.65 104.74 246.65 106.895Z" fill="#FF4C29"/>
<path fill-rule="evenodd" clip-rule="evenodd" d="M246.65 175.557C246.65 177.712 248.396 179.459 250.551 179.459C252.706 179.459 254.452 177.712 254.452 175.557C254.452 173.403 252.706 171.656 250.551 171.656C248.396 171.656 246.65 173.403 246.65 175.557Z" fill="#FF4C29"/>
<path fill-rule="evenodd" clip-rule="evenodd" d="M394.898 3.90127C394.898 6.05589 396.645 7.80255 398.799 7.80255C400.954 7.80255 402.701 6.05589 402.701 3.90127C402.701 1.74666 400.954 0 398.799 0C396.645 0 394.898 1.74666 394.898 3.90127Z" fill="#FF4C29"/>
<path fill-rule="evenodd" clip-rule="evenodd" d="M394.898 72.5637C394.898 74.7183 396.645 76.465 398.799 76.465C400.954 76.465 402.701 74.7183 402.701 72.5637C402.701 70.4091 400.954 68.6624 398.799 68.6624C396.645 68.6624 394.898 70.4091 394.898 72.5637Z" fill="#FF4C29"/>
<path fill-rule="evenodd" clip-rule="evenodd" d="M394.898 141.226C394.898 143.381 396.645 145.127 398.799 145.127C400.954 145.127 402.701 143.381 402.701 141.226C402.701 139.071 400.954 137.325 398.799 137.325C396.645 137.325 394.898 139.071 394.898 141.226Z" fill="#FF4C29"/>
<path fill-rule="evenodd" clip-rule="evenodd" d="M394.898 38.2325C394.898 40.3871 396.645 42.1338 398.799 42.1338C400.954 42.1338 402.701 40.3871 402.701 38.2325C402.701 36.0779 400.954 34.3312 398.799 34.3312C396.645 34.3312 394.898 36.0779 394.898 38.2325Z" fill="#FF4C29"/>
<path fill-rule="evenodd" clip-rule="evenodd" d="M394.898 106.895C394.898 109.05 396.645 110.796 398.799 110.796C400.954 110.796 402.701 109.05 402.701 106.895C402.701 104.74 400.954 102.994 398.799 102.994C396.645 102.994 394.898 104.74 394.898 106.895Z" fill="#FF4C29"/>
<path fill-rule="evenodd" clip-rule="evenodd" d="M394.898 175.557C394.898 177.712 396.645 179.459 398.799 179.459C400.954 179.459 402.701 177.712 402.701 175.557C402.701 173.403 400.954 171.656 398.799 171.656C396.645 171.656 394.898 173.403 394.898 175.557Z" fill="#FF4C29"/>
<path fill-rule="evenodd" clip-rule="evenodd" d="M305.949 3.90127C305.949 6.05589 307.696 7.80255 309.85 7.80255C312.005 7.80255 313.752 6.05589 313.752 3.90127C313.752 1.74666 312.005 0 309.85 0C307.696 0 305.949 1.74666 305.949 3.90127Z" fill="#FF4C29"/>
<path fill-rule="evenodd" clip-rule="evenodd" d="M305.949 72.5637C305.949 74.7183 307.696 76.465 309.85 76.465C312.005 76.465 313.752 74.7183 313.752 72.5637C313.752 70.4091 312.005 68.6624 309.85 68.6624C307.696 68.6624 305.949 70.4091 305.949 72.5637Z" fill="#FF4C29"/>
<path fill-rule="evenodd" clip-rule="evenodd" d="M305.949 141.226C305.949 143.381 307.696 145.127 309.85 145.127C312.005 145.127 313.752 143.381 313.752 141.226C313.752 139.071 312.005 137.325 309.85 137.325C307.696 137.325 305.949 139.071 305.949 141.226Z" fill="#FF4C29"/>
<path fill-rule="evenodd" clip-rule="evenodd" d="M305.949 38.2325C305.949 40.3871 307.696 42.1338 309.85 42.1338C312.005 42.1338 313.752 40.3871 313.752 38.2325C313.752 36.0779 312.005 34.3312 309.85 34.3312C307.696 34.3312 305.949 36.0779 305.949 38.2325Z" fill="#FF4C29"/>
<path fill-rule="evenodd" clip-rule="evenodd" d="M305.949 106.895C305.949 109.05 307.696 110.796 309.85 110.796C312.005 110.796 313.752 109.05 313.752 106.895C313.752 104.74 312.005 102.994 309.85 102.994C307.696 102.994 305.949 104.74 305.949 106.895Z" fill="#FF4C29"/>
<path fill-rule="evenodd" clip-rule="evenodd" d="M305.949 175.557C305.949 177.712 307.696 179.459 309.85 179.459C312.005 179.459 313.752 177.712 313.752 175.557C313.752 173.403 312.005 171.656 309.85 171.656C307.696 171.656 305.949 173.403 305.949 175.557Z" fill="#FF4C29"/>
<path fill-rule="evenodd" clip-rule="evenodd" d="M217 3.90127C217 6.05589 218.747 7.80255 220.901 7.80255C223.056 7.80255 224.803 6.05589 224.803 3.90127C224.803 1.74666 223.056 0 220.901 0C218.747 0 217 1.74666 217 3.90127Z" fill="#FF4C29"/>
<path fill-rule="evenodd" clip-rule="evenodd" d="M217 72.5637C217 74.7183 218.747 76.465 220.901 76.465C223.056 76.465 224.803 74.7183 224.803 72.5637C224.803 70.4091 223.056 68.6624 220.901 68.6624C218.747 68.6624 217 70.4091 217 72.5637Z" fill="#FF4C29"/>
<path fill-rule="evenodd" clip-rule="evenodd" d="M217 141.226C217 143.381 218.747 145.127 220.901 145.127C223.056 145.127 224.803 143.381 224.803 141.226C224.803 139.071 223.056 137.325 220.901 137.325C218.747 137.325 217 139.071 217 141.226Z" fill="#FF4C29"/>
<path fill-rule="evenodd" clip-rule="evenodd" d="M217 38.2325C217 40.3871 218.747 42.1338 220.901 42.1338C223.056 42.1338 224.803 40.3871 224.803 38.2325C224.803 36.0779 223.056 34.3312 220.901 34.3312C218.747 34.3312 217 36.0779 217 38.2325Z" fill="#FF4C29"/>
<path fill-rule="evenodd" clip-rule="evenodd" d="M217 106.895C217 109.05 218.747 110.796 220.901 110.796C223.056 110.796 224.803 109.05 224.803 106.895C224.803 104.74 223.056 102.994 220.901 102.994C218.747 102.994 217 104.74 217 106.895Z" fill="#FF4C29"/>
<path fill-rule="evenodd" clip-rule="evenodd" d="M217 175.557C217 177.712 218.747 179.459 220.901 179.459C223.056 179.459 224.803 177.712 224.803 175.557C224.803 173.403 223.056 171.656 220.901 171.656C218.747 171.656 217 173.403 217 175.557Z" fill="#FF4C29"/>
</svg>
